<svg width="512" height="512" viewBox="0 0 512 512" fill="none" xmlns="http://www.w3.org/2000/svg">
<path d="M505.75 475.584L378.411 348.245C413.112 305.805 430.174 251.65 426.066 196.983C421.959 142.315 396.997 91.318 356.343 54.5391C315.69 17.7602 262.456 -1.98631 207.651 -0.616033C152.847 0.754246 100.666 23.1365 61.9013 61.9011C23.1367 100.666 0.75449 152.847 -0.615789 207.651C-1.98607 262.455 17.7605 315.69 54.5393 356.343C91.3182 396.997 142.316 421.959 196.983 426.066C251.65 430.173 305.805 413.112 348.246 378.411L475.584 505.749C479.608 509.635 484.997 511.786 490.59 511.737C496.184 511.688 501.534 509.445 505.49 505.489C509.445 501.534 511.689 496.183 511.737 490.59C511.786 484.996 509.636 479.608 505.75 475.584ZM213.334 384C179.579 384 146.582 373.991 118.516 355.237C90.4502 336.484 68.5755 309.83 55.6581 278.645C42.7408 247.459 39.361 213.144 45.9462 180.038C52.5314 146.932 68.7858 116.522 92.654 92.6538C116.522 68.7856 146.932 52.5312 180.038 45.946C213.144 39.3607 247.46 42.7405 278.645 55.6579C309.83 68.5752 336.485 90.45 355.238 118.516C373.991 146.582 384 179.579 384 213.333C383.949 258.581 365.952 301.962 333.957 333.957C301.962 365.952 258.582 383.949 213.334 384Z" fill="#5B5B5B"/>
</svg>
